<?xml version="1.0" standalone="no"?><!DOCTYPE svg PUBLIC "-//W3C//DTD SVG 1.1//EN" "http://www.w3.org/Graphics/SVG/1.1/DTD/svg11.dtd"><svg t="1714629270207" class="icon" viewBox="0 0 1024 1024" version="1.1" xmlns="http://www.w3.org/2000/svg" p-id="5236" xmlns:xlink="http://www.w3.org/1999/xlink" width="200" height="200"><path d="M204.804 471.04h614.393v81.919H204.804zM819.196 0.006H716.797v81.919h102.399c67.759 0 122.878 55.119 122.878 122.878v133.118h81.919V204.804C1023.993 91.695 932.305 0.006 819.196 0.006zM81.925 204.804c0-67.759 55.124-122.878 122.878-122.878h102.398V0.006H204.804C91.695 0.006 0.006 91.695 0.006 204.804v133.118h81.919V204.804zM81.925 819.196v-71.68H0.006v71.68c0 113.108 91.688 204.798 204.797 204.798h102.398v-81.92H204.804c-67.755 0-122.879-55.119-122.879-122.878zM942.074 819.196c0 67.759-55.119 122.878-122.878 122.878H716.797v81.92h102.399c113.108 0 204.797-91.689 204.797-204.798v-71.68h-81.919v71.68z" fill="#000000" p-id="5237"></path></svg>